<svg width="280" height="276" viewBox="0 0 280 276" fill="none" xmlns="http://www.w3.org/2000/svg">
<g filter="url(#filter0_d)">
<g clip-path="url(#clip0)">
<path d="M274.677 17.6211H4.25879V175.198H274.677V17.6211Z" fill="#0E1524"/>
<path d="M112.664 53.3453H22.9957C22.6238 53.3453 22.3262 53.0473 22.3262 52.6746C22.3262 52.302 22.6238 52.0039 22.9957 52.0039H112.664C113.036 52.0039 113.334 52.302 113.334 52.6746C113.334 53.0473 113.036 53.3453 112.664 53.3453Z" fill="white"/>
<path d="M87.008 44.4469H22.9957C22.6238 44.4469 22.3262 44.1488 22.3262 43.7762C22.3262 43.4036 22.6238 43.1055 22.9957 43.1055H87.008C87.38 43.1055 87.6776 43.4036 87.6776 43.7762C87.6776 44.1488 87.38 44.4469 87.008 44.4469Z" fill="white"/>
<path d="M62.2449 34.3454H22.9957C22.6238 34.3454 22.3262 34.0473 22.3262 33.6746C22.3262 33.302 22.6238 33.0039 22.9957 33.0039H62.2449C62.6168 33.0039 62.9144 33.302 62.9144 33.6746C62.9144 34.0473 62.6168 34.3454 62.2449 34.3454Z" fill="white"/>
<path d="M87.0286 72.0524H23.0162C22.6443 72.0524 22.3467 71.7543 22.3467 71.3817C22.3467 71.009 22.6443 70.7109 23.0162 70.7109H87.0286C87.4005 70.7109 87.6981 71.009 87.6981 71.3817C87.6981 71.7543 87.4005 72.0524 87.0286 72.0524Z" fill="white"/>
<path d="M62.2654 62.5446H23.0162C22.6443 62.5446 22.3467 62.2465 22.3467 61.8739C22.3467 61.5012 22.6443 61.2031 23.0162 61.2031H62.2654C62.6373 61.2031 62.9349 61.5012 62.9349 61.8739C62.9349 62.2465 62.6373 62.5446 62.2654 62.5446Z" fill="white"/>
<path d="M86.8272 62.5446H66.2725C66.0777 62.5446 65.9219 62.2465 65.9219 61.8739C65.9219 61.5012 66.0777 61.2031 66.2725 61.2031H86.8272C87.022 61.2031 87.1778 61.5012 87.1778 61.8739C87.1778 62.2465 87.022 62.5446 86.8272 62.5446Z" fill="#F2C94C"/>
<path d="M111.272 62.5446H90.7169C90.5221 62.5446 90.3662 62.2465 90.3662 61.8739C90.3662 61.5012 90.5221 61.2031 90.7169 61.2031H111.272C111.466 61.2031 111.622 61.5012 111.622 61.8739C111.622 62.2465 111.466 62.5446 111.272 62.5446Z" fill="white"/>
<path d="M112.334 44.4469H91.7794C91.5846 44.4469 91.4287 44.1488 91.4287 43.7762C91.4287 43.4036 91.5846 43.1055 91.7794 43.1055H112.334C112.529 43.1055 112.685 43.4036 112.685 43.7762C112.685 44.1488 112.529 44.4469 112.334 44.4469Z" fill="#2C6AFA"/>
<path d="M130.401 72.1266H109.847C109.652 72.1266 109.496 71.8285 109.496 71.4559C109.496 71.0833 109.652 70.7852 109.847 70.7852H130.401C130.596 70.7852 130.752 71.0833 130.752 71.4559C130.752 71.8285 130.596 72.1266 130.401 72.1266Z" fill="#F2C94C"/>
<path d="M112.664 101.256H22.9957C22.6238 101.256 22.3262 100.957 22.3262 100.585C22.3262 100.212 22.6238 99.9141 22.9957 99.9141H112.664C113.036 99.9141 113.334 100.212 113.334 100.585C113.334 100.957 113.036 101.256 112.664 101.256Z" fill="white"/>
<path d="M87.008 92.3571H22.9957C22.6238 92.3571 22.3262 92.059 22.3262 91.6864C22.3262 91.3137 22.6238 91.0156 22.9957 91.0156H87.008C87.38 91.0156 87.6776 91.3137 87.6776 91.6864C87.6776 92.059 87.38 92.3571 87.008 92.3571Z" fill="white"/>
<path d="M62.2449 82.2555H22.9957C22.6238 82.2555 22.3262 81.9574 22.3262 81.5848C22.3262 81.2122 22.6238 80.9141 22.9957 80.9141H62.2449C62.6168 80.9141 62.9144 81.2122 62.9144 81.5848C62.9144 81.9574 62.6168 82.2555 62.2449 82.2555Z" fill="white"/>
<path d="M87.0286 119.963H23.0162C22.6443 119.963 22.3467 119.664 22.3467 119.292C22.3467 118.919 22.6443 118.621 23.0162 118.621H87.0286C87.4005 118.621 87.6981 118.919 87.6981 119.292C87.6981 119.664 87.4005 119.963 87.0286 119.963Z" fill="white"/>
<path d="M62.2654 110.455H23.0162C22.6443 110.455 22.3467 110.157 22.3467 109.784C22.3467 109.411 22.6443 109.113 23.0162 109.113H62.2654C62.6373 109.113 62.9349 109.411 62.9349 109.784C62.9349 110.157 62.6373 110.455 62.2654 110.455Z" fill="white"/>
<path d="M86.8272 110.455H66.2725C66.0777 110.455 65.9219 110.157 65.9219 109.784C65.9219 109.411 66.0777 109.113 66.2725 109.113H86.8272C87.022 109.113 87.1778 109.411 87.1778 109.784C87.1778 110.157 87.022 110.455 86.8272 110.455Z" fill="#F2C94C"/>
<path d="M111.272 110.455H90.7169C90.5221 110.455 90.3662 110.157 90.3662 109.784C90.3662 109.411 90.5221 109.113 90.7169 109.113H111.272C111.466 109.113 111.622 109.411 111.622 109.784C111.622 110.157 111.466 110.455 111.272 110.455Z" fill="white"/>
<path d="M112.334 92.3571H91.7794C91.5846 92.3571 91.4287 92.059 91.4287 91.6864C91.4287 91.3137 91.5846 91.0156 91.7794 91.0156H112.334C112.529 91.0156 112.685 91.3137 112.685 91.6864C112.685 92.059 112.529 92.3571 112.334 92.3571Z" fill="#2C6AFA"/>
<path d="M130.401 120.037H109.847C109.652 120.037 109.496 119.739 109.496 119.366C109.496 118.993 109.652 118.695 109.847 118.695H130.401C130.596 118.695 130.752 118.993 130.752 119.366C130.752 119.739 130.596 120.037 130.401 120.037Z" fill="#43C66F"/>
<path d="M170.727 53.3453H118.369C118.152 53.3453 117.979 53.0473 117.979 52.6746C117.979 52.302 118.152 52.0039 118.369 52.0039H170.727C170.945 52.0039 171.118 52.302 171.118 52.6746C171.118 53.0473 170.945 53.3453 170.727 53.3453Z" fill="white"/>
<path d="M212.114 44.4469H118.953C118.412 44.4469 117.979 44.1488 117.979 43.7762C117.979 43.4036 118.412 43.1055 118.953 43.1055H212.114C212.655 43.1055 213.088 43.4036 213.088 43.7762C213.088 44.1488 212.655 44.4469 212.114 44.4469Z" fill="white"/>
<path d="M187.655 34.3454H148.406C148.034 34.3454 147.736 34.0473 147.736 33.6746C147.736 33.302 148.034 33.0039 148.406 33.0039H187.655C188.027 33.0039 188.325 33.302 188.325 33.6746C188.325 34.0473 188.027 34.3454 187.655 34.3454Z" fill="white"/>
<path d="M212.755 72.0524H178.912C178.715 72.0524 178.558 71.7543 178.558 71.3817C178.558 71.009 178.715 70.7109 178.912 70.7109H212.755C212.951 70.7109 213.109 71.009 213.109 71.3817C213.109 71.7543 212.951 72.0524 212.755 72.0524Z" fill="white"/>
<path d="M150.382 62.5446H118.522C118.22 62.5446 117.979 62.2465 117.979 61.8739C117.979 61.5012 118.22 61.2031 118.522 61.2031H150.382C150.684 61.2031 150.925 61.5012 150.925 61.8739C150.925 62.2465 150.684 62.5446 150.382 62.5446Z" fill="white"/>
<path d="M212.237 62.5446H191.683C191.488 62.5446 191.332 62.2465 191.332 61.8739C191.332 61.5012 191.488 61.2031 191.683 61.2031H212.237C212.432 61.2031 212.588 61.5012 212.588 61.8739C212.588 62.2465 212.432 62.5446 212.237 62.5446Z" fill="#F2C94C"/>
<path d="M236.682 62.5446H216.127C215.932 62.5446 215.776 62.2465 215.776 61.8739C215.776 61.5012 215.932 61.2031 216.127 61.2031H236.682C236.876 61.2031 237.032 61.5012 237.032 61.8739C237.032 62.2465 236.876 62.5446 236.682 62.5446Z" fill="white"/>
<path d="M237.744 44.4469H217.19C216.995 44.4469 216.839 44.1488 216.839 43.7762C216.839 43.4036 216.995 43.1055 217.19 43.1055H237.744C237.939 43.1055 238.095 43.4036 238.095 43.7762C238.095 44.1488 237.939 44.4469 237.744 44.4469Z" fill="#2C6AFA"/>
<path d="M255.812 72.1266H235.257C235.062 72.1266 234.906 71.8285 234.906 71.4559C234.906 71.0833 235.062 70.7852 235.257 70.7852H255.812C256.006 70.7852 256.162 71.0833 256.162 71.4559C256.162 71.8285 256.006 72.1266 255.812 72.1266Z" fill="#F2C94C"/>
<path d="M205.627 205.319L220.389 264.875C220.538 265.46 221.059 265.865 221.654 265.865C222.472 265.865 223.089 265.12 222.94 264.321L211.632 203.871" fill="#447CFF"/>
<path d="M180.268 205.319L165.506 264.875C165.357 265.46 164.836 265.865 164.241 265.865C163.422 265.865 162.806 265.12 162.955 264.321L174.263 203.871" fill="#447CFF"/>
<path d="M216.657 204.166C211.375 209.255 175.601 214.557 173.624 207.701C171.637 200.845 189.364 192.53 189.364 192.53L193.212 139.798C193.212 139.798 199.291 138.872 205.614 139.394C210.046 139.766 214.606 140.852 217.273 143.482C224.192 150.264 216.444 174.335 215.817 183.225C215.211 192.115 223.841 197.257 216.657 204.166Z" fill="#447CFF"/>
<path d="M216.659 204.166C219.911 199.45 212.992 191.422 212.578 186.014C212.163 180.606 216.064 167.17 215.894 158.663C215.617 145.036 211.579 145.973 208.103 144.45C206.392 143.705 206.19 141.129 205.627 139.383C210.059 139.755 214.618 140.841 217.286 143.471C224.205 150.253 216.457 174.324 215.83 183.214C215.213 192.114 223.843 197.257 216.659 204.166Z" fill="#2C6AFA"/>
<path d="M181.181 249.022L183.593 254.611C183.593 254.611 188.238 255.804 189.343 253.227L186.909 246.797" fill="#FAC3B1"/>
<path d="M133.877 252.203L133.144 259.155C133.144 259.155 136.544 261.253 138.808 259.954L139.956 253.172" fill="#FAC3B1"/>
<path d="M208.102 194.801C207.273 199.922 201.194 203.829 194.87 206.544C188.047 207.396 178.971 208.29 170.84 208.503C167.716 208.599 164.729 208.588 162.072 208.429C161.158 208.375 160.234 208.312 159.32 208.226C156.046 207.939 152.943 207.524 151.37 207.396C150.126 207.3 150.743 205.906 150.743 205.906L145.812 193.236C146.757 192.842 147.682 192.491 148.585 192.193C148.596 192.193 148.607 192.193 148.617 192.182L154.952 190.585L174.985 186.38L205.658 184.879C205.647 184.9 208.655 188.69 208.102 194.801Z" fill="#37445F"/>
<path d="M187.302 139.226C187.302 139.226 181.425 170.068 177.939 171.963L171.615 169.216C171.615 169.216 171.668 152.896 172.21 147.136C173.464 133.679 184.964 133.54 187.302 139.226Z" fill="#F1F4F9"/>
<path d="M140.561 168.299C140.561 168.299 137.469 170.566 137.639 170.747C137.809 170.939 138.181 170.95 138.818 170.747C139.456 170.545 141.231 169.374 141.741 169.246C142.251 169.118 144.419 168.607 144.419 168.607L144.302 167.617" fill="#DE8282"/>
<path d="M142.676 168.309C142.676 168.309 139.307 170.556 139.477 170.747C139.647 170.939 140.019 170.95 140.657 170.747C141.294 170.545 143.069 169.374 143.579 169.246C144.089 169.118 146.258 168.607 146.258 168.607L146.141 167.617" fill="#DE8282"/>
<path d="M144.122 168.309C144.122 168.309 140.753 170.556 140.923 170.747C141.093 170.939 141.465 170.95 142.103 170.747C142.741 170.545 144.515 169.374 145.026 169.246C145.536 169.118 147.704 168.607 147.704 168.607L147.587 167.617" fill="#DE8282"/>
<path d="M150.424 167.417C150.424 167.417 148.585 167.459 147.693 167.268C146.789 167.076 144.44 166.171 143.431 166.054C142.421 165.937 139.775 167.321 139.02 167.736C138.266 168.151 136.172 170.27 136.172 170.376C136.193 170.642 136.735 170.664 137.383 170.398C138.032 170.131 139.796 168.95 140.253 168.758C140.699 168.566 142.942 168.311 143.399 168.311C144.217 168.311 144.355 168.939 144.132 169.482C143.909 170.025 141.985 169.865 141.582 170.217C141.241 170.515 141.39 170.866 142.028 171.058C142.676 171.249 143.93 171.281 145.131 171.228C146.343 171.175 147.629 170.738 148.054 170.653C148.479 170.568 150.435 170.536 150.435 170.536" fill="#FAC3B1"/>
<path d="M175.825 163.469C175.825 163.469 166.09 165.108 157.545 166.503C155.451 166.844 149.01 166.95 149.01 166.95C149.01 166.95 148.723 167.898 148.649 169.111C148.607 169.729 148.787 171.571 148.787 171.571L172.179 173.274C172.179 173.274 178.971 173.721 179.375 171.762L175.262 165.822L175.825 163.469Z" fill="#F1F4F9"/>
<path d="M175.75 145.051C175.75 145.051 175.335 169.378 174.91 173.189H177.185C177.195 173.189 176.441 147.02 175.75 145.051Z" fill="#CBCFD7"/>
<path d="M185.804 133.212C185.804 133.212 181.159 134.819 177.609 136.768C174.474 138.482 176.164 157.762 176.1 161.254C176.036 164.246 176.961 181.312 175.027 185.677C174.655 186.508 175.282 186.678 175.569 186.763C180.298 188.168 206.73 186.763 206.73 186.763C206.73 186.763 207.293 186.433 207.176 185.358C206.964 183.452 205.997 180.215 205.933 179.641C205.465 175.669 205.115 169.729 206.241 160.85C207.623 149.969 209.632 139.642 208.526 137.428C207.421 135.213 195.156 132.754 195.156 132.754" fill="#F1F4F9"/>
<path d="M184 100C184 100 180.414 102.28 176.135 102.372C171.871 102.463 169.614 100.796 167.017 103.672C164.626 106.319 166.692 113.311 170.705 116.157C172.092 117.152 173.081 118.697 173.435 120.411C173.538 120.931 173.583 121.467 173.524 122.002C173.258 124.466 182.105 125 176.711 128" fill="#EB5757"/>
<path d="M198.081 134.113C198.081 134.113 195.988 138.754 188.474 138.51C180.917 138.275 185.179 134.006 185.179 134.006C185.179 134.006 185.423 132.867 185.721 131.366C186.008 129.897 186.327 128.087 186.497 126.671L189.047 124.094L194.447 118.633C194.447 118.622 194.765 130.578 198.081 134.113Z" fill="#FAC3B1"/>
<path d="M192.662 123.766C192.662 123.766 190.791 129.174 185.711 131.367C185.998 129.898 186.317 128.088 186.487 126.672L189.038 124.096L192.662 123.766Z" fill="#DE8282"/>
<path d="M176.442 111.586C176.442 111.586 177.027 128.162 182.192 129.514C182.192 129.514 187.846 130.185 192.182 124.457C193.437 122.807 194.276 120.902 194.808 118.9C195.668 115.653 196.891 109.648 195.435 106.018C193.373 100.844 176.761 99.0338 176.442 111.586Z" fill="#FAC3B1"/>
<path d="M177.059 104.787C177.059 104.787 177.983 102.838 181.097 103.946C184.211 105.053 183.265 111.153 185.816 113.368C188.356 115.582 197.007 112.463 197.007 112.463C197.007 112.463 199.292 106.788 195.275 100.55C191.258 94.3107 180.141 96.8233 177.059 104.787Z" fill="#EB5757"/>
<path d="M189.686 111.981C189.686 111.981 192.141 112.141 193.172 115.814C194.203 119.487 194.033 126.045 195.255 125.939C196.467 125.832 195.244 121.627 196.594 118.976C197.954 116.325 201.696 114.249 201.632 111.268C201.568 108.287 197.753 108.287 198.528 104.145C199.304 100.004 192.194 93.9888 183.745 98.0025C179.611 99.9827 189.686 111.981 189.686 111.981Z" fill="#EB5757"/>
<path d="M189.929 114.365C189.929 114.365 190.173 111.427 192.405 111.789C195.349 112.257 194.074 119.805 190.981 118.56" fill="#FAC3B1"/>
<path d="M198.506 148.156C198.506 148.156 201.29 160.208 201.917 162.39C201.917 162.39 197.772 163.998 194.605 165.041C191.438 166.085 180.959 167.98 180.959 167.98L195.126 169.204C195.126 169.204 202.746 167.99 202.906 167.841C203.065 167.692 206.487 163.327 206.487 163.072C206.487 162.816 204.883 157.876 204.617 157.206C204.351 156.514 198.506 148.156 198.506 148.156Z" fill="#CBCFD7"/>
<path d="M209.707 139.682C210.908 146.059 215.202 167.937 214.128 170.62L206.954 171.259C206.954 171.259 200.492 154.917 198.856 149.37C195.731 138.777 202.257 134.88 207.061 136.254C208.336 136.626 209.452 138.372 209.707 139.682Z" fill="#F1F4F9"/>
<path d="M180.671 168.077C180.182 168.088 179.682 168.013 179.225 167.843C178.513 167.587 177.366 167.204 176.207 166.927C174.315 166.48 171.212 167.108 170.585 167.065C169.958 167.023 166.047 170.568 166.026 170.824C166.015 171.079 166.684 171.324 167.29 171.015C167.896 170.696 169.416 169.461 169.841 169.173C170.064 169.024 170.925 168.801 171.733 168.652C171.063 168.843 170.426 169.056 170.277 169.205C169.947 169.525 168.311 170.962 168.374 171.1C168.449 171.239 169.097 171.367 169.565 171.186C170.032 171.005 171.329 170.185 171.711 170.004C171.775 169.972 171.924 169.929 172.115 169.887C171.52 170.43 170.521 171.345 170.574 171.452C170.649 171.59 171.297 171.718 171.765 171.537C171.935 171.473 172.211 171.324 172.519 171.143C172.37 171.303 172.285 171.409 172.307 171.441C172.381 171.58 173.029 171.707 173.497 171.526C173.763 171.42 174.273 171.122 174.751 170.845C175.261 170.547 175.878 170.568 176.398 170.866C176.473 170.909 176.537 170.941 176.6 170.973C177.504 171.356 178.715 171.505 179.481 171.611C180.246 171.718 181.712 170.749 182.626 170.696C183.487 170.632 184.943 167.981 180.671 168.077Z" fill="#FAC3B1"/>
<path d="M205.456 163.055C205.456 163.055 193.138 166.291 189.078 166.973C185.635 167.547 180.969 167.973 180.969 167.973C180.969 167.973 180.544 168.782 180.544 170.049C180.544 171.412 180.969 172.604 180.969 172.604H207.039C207.039 172.604 213.852 172.615 214.128 170.624L209.643 164.96L205.456 163.055Z" fill="#F1F4F9"/>
<path d="M177.769 192.754L170.84 208.5C167.715 208.596 164.729 208.585 162.072 208.425C161.158 208.372 160.233 208.308 159.319 208.223C161.785 198.514 177.769 192.754 177.769 192.754Z" fill="#37445F"/>
<path d="M208.101 194.789C207.272 199.91 201.183 203.817 194.859 206.543C187.494 209.705 178.545 211.27 178.545 211.27C178.545 211.27 183.731 218.754 185.06 232.978C186.016 243.188 187.951 248.511 187.951 248.511C185.963 250.789 181.553 251.258 181.553 251.258C181.553 251.258 165.196 218.861 163.007 213.697C161.732 210.684 161.944 208.257 162.337 206.745C162.624 205.659 163.007 205.052 163.007 205.052C167.354 196.301 182.424 190.68 182.424 190.68L208.101 194.789Z" fill="#37445F"/>
<path d="M152.646 204.158C152.678 204.776 152.646 205.415 152.678 206.085C153.316 218.872 147.853 230.764 145.164 238.951C142.295 247.681 139.797 255.772 139.797 255.772C136.322 256.187 133.293 254.686 133.293 254.686C133.293 254.686 136.577 213.708 136.248 204.105C136.056 198.697 140.988 195.279 145.813 193.246C146.759 192.852 147.683 192.511 148.587 192.202C148.597 192.202 148.608 192.202 148.618 192.192C152.094 191.042 154.953 190.605 154.953 190.605L152.646 204.158Z" fill="#37445F"/>
<path d="M208.103 191.875C208.103 191.875 209.251 198.816 205.818 202.83C202.088 207.195 178.558 211.283 178.558 211.283L190.631 200.711L208.103 191.875Z" fill="#37445F"/>
<path d="M181.598 255.103C181.156 254.317 181.443 253.321 182.254 252.911C182.923 252.571 183.83 252.243 184.713 252.337C186.431 252.501 186.849 252.887 187.303 252.934C188.472 253.04 188.89 252.325 188.89 252.325C188.89 252.325 189.522 252.548 190.143 253.368C190.776 254.188 191.635 256.861 191.635 257.552C191.635 258.255 188.782 259.392 187.529 260.459C186.276 261.525 185.047 264.526 183.961 265.51C182.875 266.495 176.86 266.143 175.726 265.862C174.592 265.58 174.007 263.107 175.475 261.795C176.943 260.482 178.375 260.822 179.008 260.459C179.641 260.084 181.001 256.65 181.371 255.946C181.538 255.653 181.717 255.325 181.598 255.103Z" fill="#37445F"/>
<path d="M132.73 257.645C132.73 257.645 134.123 257.757 134.863 258.168C135.617 258.579 136.026 259.14 136.818 259.551C137.61 259.963 139.538 259.252 139.538 259.252C139.538 259.252 140.266 260.125 140.483 261.097C140.688 262.069 140.19 263.727 140.062 264.175C139.934 264.624 140.19 265.185 140.1 265.509C140.024 265.833 134.659 265.957 133.701 265.795C132.743 265.633 131.453 265.671 130.661 265.708C129.869 265.746 125.833 265.97 123.508 266.119C121.541 266.244 119.472 266.094 119.306 265.646C119.14 265.197 119.165 262.58 120.826 262.007C122.486 261.433 125.999 261.059 127.289 260.486C128.592 259.913 131.3 257.844 132.73 257.645Z" fill="#37445F"/>
<path d="M253.729 175.797H40.1919C39.1185 175.797 38.2363 174.924 38.2363 173.838C38.2363 172.763 39.1078 171.879 40.1919 171.879H253.729C254.803 171.879 255.685 172.752 255.685 173.838C255.685 174.924 254.803 175.797 253.729 175.797Z" fill="#37445F"/>
<path d="M44.4649 173.188L26.291 265.79" stroke="#7A8398" stroke-width="1.5617" stroke-miterlimit="10" stroke-linecap="round"/>
<path d="M248.489 173.188L267.375 265.79" stroke="#7A8398" stroke-width="1.5617" stroke-miterlimit="10" stroke-linecap="round"/>
<path d="M72.9704 139.449H59.2178V165.075H72.9704V139.449Z" fill="#F1F4F9"/>
<path d="M56.3361 138.172H48.6309V171.9H56.3361V138.172Z" fill="#F2C94C"/>
<path d="M56.3467 138.172H60.7148L65.2104 154.482H74.3505V171.889H56.3467V138.172Z" fill="#F2994A"/>
<path d="M52.4879 146.859C53.8144 146.859 54.8898 145.782 54.8898 144.453C54.8898 143.124 53.8144 142.047 52.4879 142.047C51.1613 142.047 50.0859 143.124 50.0859 144.453C50.0859 145.782 51.1613 146.859 52.4879 146.859Z" fill="#F2994A"/>
<path d="M54.5495 148.23H50.4365V162.88H54.5495V148.23Z" fill="#F2994A"/>
<path d="M54.5495 163.574H50.4365V165.075H54.5495V163.574Z" fill="#F2994A"/>
<path d="M54.5495 165.695H50.4365V167.196H54.5495V165.695Z" fill="#F2994A"/>
<path d="M84.0212 139.449H70.2686V165.075H84.0212V139.449Z" fill="#F1F4F9"/>
<path d="M67.4006 138.172H59.6953V171.9H67.4006V138.172Z" fill="#BB6BD9"/>
<path d="M67.4004 138.172H71.7685L76.2748 154.482H85.4042V171.889H67.4004V138.172Z" fill="#9B51E0"/>
<path d="M65.9435 144.453C65.9435 145.784 64.8701 146.859 63.5416 146.859C62.2131 146.859 61.1396 145.784 61.1396 144.453C61.1396 143.122 62.2131 142.047 63.5416 142.047C64.8701 142.047 65.9435 143.122 65.9435 144.453Z" fill="#9B51E0"/>
<path d="M65.6033 148.23H61.4902V162.88H65.6033V148.23Z" fill="#9B51E0"/>
<path d="M65.6033 163.574H61.4902V165.075H65.6033V163.574Z" fill="#9B51E0"/>
<path d="M65.6033 165.695H61.4902V167.196H65.6033V165.695Z" fill="#9B51E0"/>
<path d="M100.263 170.971H79.6024C78.5928 170.971 77.7744 170.151 77.7744 169.14C77.7744 168.128 78.5928 167.309 79.6024 167.309H100.263V170.971Z" fill="#F1F4F9"/>
<path d="M77.7724 169.141C77.7724 170.152 78.5908 170.972 79.6005 170.972H100.697V171.483H79.4835C78.1869 171.483 77.1348 170.429 77.1348 169.13C77.1348 168.481 77.3898 167.895 77.8256 167.469C78.2507 167.044 78.8352 166.777 79.4835 166.777H100.686V167.288H79.6005C78.5908 167.31 77.7724 168.14 77.7724 169.141Z" fill="#6291FF"/>
<path d="M101.092 171.888H79.4852C77.976 171.888 76.7432 170.653 76.7432 169.141C76.7432 168.396 77.0301 167.704 77.5509 167.193C78.0717 166.671 78.7519 166.395 79.4852 166.395H101.092V167.704H79.6021C78.8156 167.704 78.1673 168.343 78.1673 169.141C78.1673 169.929 78.805 170.579 79.6021 170.579H101.092V171.888Z" fill="#EB5757"/>
<path d="M98.4341 165.455H77.7733C76.7637 165.455 75.9453 164.636 75.9453 163.624C75.9453 162.613 76.7637 161.793 77.7733 161.793H98.4341V165.455Z" fill="#F1F4F9"/>
<path d="M75.9443 163.625C75.9443 164.637 76.7627 165.456 77.7723 165.456H98.8689V165.967H77.6554C76.3588 165.967 75.3066 164.913 75.3066 163.615C75.3066 162.965 75.5617 162.38 75.9975 161.954C76.4226 161.528 77.0071 161.262 77.6554 161.262H98.8583V161.773H77.7723C76.7627 161.794 75.9443 162.614 75.9443 163.625Z" fill="#F2994A"/>
<path d="M99.2627 166.372H77.6561C76.1469 166.372 74.9141 165.137 74.9141 163.626C74.9141 162.88 75.201 162.188 75.7218 161.677C76.2426 161.156 76.9227 160.879 77.6561 160.879H99.2627V162.188H77.773C76.9865 162.188 76.3382 162.827 76.3382 163.626C76.3382 164.414 76.9759 165.063 77.773 165.063H99.2627V166.372Z" fill="#18CC55"/>
<path d="M182.584 170.512H134.546V171.885H182.584V170.512Z" fill="#7A8398"/>
<path d="M179.523 170.512H131.484V171.885H179.523V170.512Z" fill="#37445F"/>
<path d="M165.624 160.738L161.384 113.33C161.299 112.435 160.555 111.754 159.662 111.754H89.8679C89.4853 111.754 89.1346 111.882 88.8476 112.095L87.1047 113.479C87.0834 113.5 87.0621 113.511 87.0409 113.532L87.0196 113.553C86.5839 113.904 86.3288 114.447 86.382 115.054L90.6225 162.463C90.7075 163.357 91.4515 164.038 92.3442 164.038H162.138C162.574 164.038 162.967 163.868 163.265 163.602L164.848 162.346C165.358 161.994 165.677 161.398 165.624 160.738Z" fill="#F1F4F9"/>
<path d="M162.126 164.029H92.3324C91.4396 164.029 90.6957 163.347 90.6107 162.453L86.3701 115.045C86.2744 114.033 87.0715 113.16 88.0918 113.16H157.886C158.778 113.16 159.522 113.842 159.607 114.736L163.848 162.144C163.933 163.156 163.147 164.029 162.126 164.029Z" fill="white"/>
<path d="M132.528 136.326L125.024 171.799H112.398L120.359 134.207L132.092 131.492L132.528 136.326Z" fill="#7A8398"/>
<path d="M123.577 171.8H110.962L119.475 131.504H132.101L123.577 171.8Z" fill="#9EA7BA"/>
<path d="M135.268 169.137H108.464V171.873H135.268V169.137Z" fill="#7A8398"/>
<path d="M129.392 169.137H102.588V171.873H129.392V169.137Z" fill="#9EA7BA"/>
<path d="M245.904 246.082L247.923 252.864C247.923 252.864 245.851 255.419 242.28 254.833L238.847 246.519" fill="#F4BBA9"/>
<path d="M247.654 251.254C247.654 251.254 244.156 253.464 241.463 253.488C241.463 253.488 238.98 257.027 237.954 258.85C236.928 260.674 236.089 262.425 234.713 262.908C233.337 263.379 231.297 263.862 231.052 265.094C230.807 266.338 232.183 267.485 237.499 267.171C237.499 267.171 239.714 267.183 241.836 265.649C243.958 264.116 244.902 261.64 245.928 260.867C246.954 260.106 250.324 258.609 251.046 257.836C251.769 257.063 250.592 252.317 247.654 251.254Z" fill="#0E1524"/>
<path d="M260.159 252.639L259.841 259.708C259.841 259.708 257.045 261.433 253.868 259.708L253.357 250.723" fill="#F4BBA9"/>
<path d="M260.252 258.707C260.252 258.707 261.531 260.072 261.818 262.119C262.105 264.166 261.567 265.859 261.567 266.314C261.567 266.769 259.858 267.186 257.491 267.211C255.135 267.249 253.916 266.643 252.948 266.491C251.979 266.339 247.831 267.135 245.799 267.211C243.755 267.287 240.898 267.022 240.037 266.605C239.176 266.188 238.997 263.168 243.324 262.789C245.823 262.574 248.62 260.956 250.724 259.882C252.254 259.086 253.522 258.707 253.522 258.707C253.522 258.707 258.961 259.263 260.252 258.707Z" fill="#0E1524"/>
<path d="M264.909 157.385C264.909 157.385 267.768 160.633 267.949 168.074C268.129 175.506 264.314 194.243 263.187 197.714C262.05 201.185 261.168 203.932 258.447 206.37C255.726 208.808 249.158 206.551 248.117 202.324C246.151 194.318 241.899 159.983 241.899 159.983C241.899 159.983 258.266 155.767 264.909 157.385Z" fill="#9EA7BA"/>
<path d="M254.961 173.652C254.09 176.495 252.028 180.828 249.754 185.203C247.618 189.281 245.279 193.39 243.494 196.35C242.399 198.171 241.517 199.555 241.018 200.225C238.828 203.153 237.117 205.463 233.769 206.911C230.421 208.349 224.906 204.122 225.267 199.778C225.947 191.57 232.855 157.672 232.855 157.672C232.855 157.672 249.711 158.907 255.493 162.559C255.482 162.548 257.161 166.551 254.961 173.652Z" fill="#9EA7BA"/>
<path d="M249.742 185.204C247.606 189.282 245.268 193.391 243.482 196.351C242.93 185.289 242.749 166.754 242.749 166.754L249.742 185.204Z" fill="#7A8398"/>
<path d="M260.457 253.567C260.457 253.567 256.461 254.078 252.912 253.802C252.912 253.802 251.243 242.761 250.414 236.033C249.659 229.911 242.73 168.332 242.762 165.181C242.783 162.03 255.685 183.898 265.835 185.665L262.094 211.866C262.094 211.866 261.648 220.84 261.967 227.526C262.296 234.223 260.436 250.618 260.457 253.567Z" fill="#9EA7BA"/>
<path d="M226.16 121.809C226.16 121.809 223.376 130.091 221.888 135.798C221.378 137.757 219.773 143.623 219.773 143.623C219.773 143.623 216.744 147.988 215.405 150.639C213.205 154.993 207.264 168.387 207.264 168.387L210.771 169.345C210.771 169.345 224.077 154.759 226.904 151.107C229.731 147.456 233.855 136.692 233.855 136.692" fill="#F4BBA9"/>
<path d="M217.23 98.1727L217.241 98.1833C218.825 98.4175 220.1 99.1734 221.099 100.121C223.054 101.91 223.958 104.273 223.958 104.273C223.958 104.273 223.947 105.614 224.999 106.754C226.062 107.893 233.098 106.573 235.319 104.848C237.54 103.123 238.38 101.026 237.094 100.1C235.808 99.1841 230.983 97.6403 229.474 95.9582C227.975 94.2654 228.103 87.5795 228.103 87.5795L224.192 87.5156C224.192 87.5156 212.565 97.4913 217.23 98.1727Z" fill="#F4BBA9"/>
<path d="M217.24 98.1812C218.824 98.4154 220.099 99.1713 221.098 100.119C225.753 95.4557 225.456 91.293 225.456 91.293L217.846 96.6481C217.846 96.6481 217.559 97.2975 217.24 98.1812Z" fill="#E29F9F"/>
<path d="M207.145 80.5533C207.145 80.5533 209.089 96.6613 212.087 100.537C212.087 100.537 218.75 101.229 225.797 92.9883C232.843 84.748 225.031 76.6355 222.396 74.932C219.739 73.2286 208.696 72.164 207.145 80.5533Z" fill="#F4BBA9"/>
<path d="M233.864 98.543C233.864 98.543 231.483 103.962 224.15 105.271C224.15 105.271 222.832 110.861 223.161 117.579C223.491 124.297 226.116 131.728 227.625 137.094C228.72 140.99 230.58 152.595 231.674 157.428C232.014 158.94 232.811 158.929 232.811 158.929C232.811 158.929 252.665 165.541 266.024 158.024C266.024 158.024 267.618 157.066 266.598 155.246C261.645 147.985 253.43 124.637 251.081 118.249C248.254 110.563 241.484 100.385 233.864 98.543Z" fill="#6291FF"/>
<path d="M230.951 85.6083C230.101 86.9817 229.516 88.5042 229.197 90.1011C229.038 90.9422 228.751 91.6129 228.241 91.5384C226.998 91.3361 227.146 89.4623 226.551 88.0677C225.967 86.6623 225.35 87.0882 224.489 86.0236C223.628 84.9589 224.022 83.3407 222.991 82.4251C221.96 81.5095 220.44 82.0205 220.568 83.4471C220.695 84.8737 221.173 86.822 220.536 86.5772C219.898 86.3323 219.016 83.4684 218.485 82.8296C217.942 82.1802 217.103 83.1171 215.679 83.5962C214.244 84.0753 214.244 82.8296 212.235 81.4988C210.227 80.168 209.281 82.3505 207.442 82.7977C205.603 83.2448 201.373 78.9224 202.713 76.5802C204.052 74.238 207.368 76.1011 208.515 74.7916C209.674 73.4928 207.931 68.968 213.128 67.1901C217.911 65.5506 220.695 70.8844 222.481 71.6935C224.266 72.5133 226.434 70.1285 229.229 71.981C232.014 73.8228 229.463 78.635 230.037 81.0197C230.25 81.914 231.312 83.9475 231.238 84.7886C231.217 85.0867 231.1 85.3635 230.951 85.6083Z" fill="#87470D"/>
<path d="M242.197 116.867C242.197 116.867 241.293 124.149 231.324 133.72C231.324 133.72 230.123 132.986 227.881 130.761C225.638 128.536 237.233 117.879 237.233 117.879" fill="#2C6AFA"/>
<path d="M239.219 116.387C239.219 116.387 223.82 136.807 219.409 138.957C214.988 141.108 211.534 135.785 212.926 131.995C214.318 128.205 228.506 109.914 228.506 109.914" fill="#F4BBA9"/>
<path d="M214.213 130.066C214.213 130.066 208.368 132.451 202.863 135.07C197.357 137.679 187.165 140.734 187.165 140.734C187.165 140.734 186.825 143.928 188.153 145.269C188.153 145.269 190.396 144.918 196.613 143.875C202.831 142.831 216.764 141.586 220.144 138.488" fill="#F4BBA9"/>
<path d="M237.498 106.063C237.498 106.063 241.015 106.393 242.365 112.568C243.715 118.742 237.668 125.13 230.802 131.401C230.802 131.401 222.959 126.099 219.281 120.765C219.281 120.755 228.251 104.104 237.498 106.063Z" fill="#6291FF"/>
<path d="M226.914 188.688C226.914 188.688 224.374 203.859 224.459 205.903C224.672 210.875 239.413 249.649 239.413 249.649C239.413 249.649 244.1 248.808 246.863 247.136C246.863 247.136 243.037 229.868 242.495 223.906C241.836 216.613 241.793 208.777 238.063 201.825" fill="#9EA7BA"/>
<path d="M208.91 164.711C208.91 164.711 207.432 167.66 206.688 168.214C205.945 168.757 203.5 169.693 203.043 169.949C202.586 170.204 199.111 170.545 198.25 170.811C197.378 171.067 197.878 171.897 199.706 171.897C201.534 171.897 205.615 171.897 207.273 171.897C208.931 171.897 210.132 171.759 210.568 171.184C211.471 169.981 211.641 168.416 212.279 167.724" fill="#F4BBA9"/>
<path d="M187.176 140.735C187.176 140.735 185.231 141.086 182.319 140.331C180.204 139.777 179.035 140.863 176.782 141.715C174.518 142.566 172.393 143.162 172.371 143.514C172.35 143.876 172.159 144.27 173.222 144.291C174.284 144.312 177.792 143.184 178.206 143.162C178.631 143.141 178.886 144.014 179.45 144.44C180.013 144.866 179.758 145.249 180.247 145.664C180.736 146.069 180.619 146.612 181.256 146.899C181.894 147.187 182.064 147.719 183.51 147.41C184.955 147.112 185.901 145.654 188.165 145.281" fill="#F4BBA9"/>
<path d="M195.498 159.707H186.635V171.887H195.498V159.707Z" fill="white"/>
<path d="M195.499 159.707H193.15V171.887H195.499V159.707Z" fill="#EAEBF4"/>
<path d="M195.435 170.415L194.957 169.808C194.999 169.776 198.581 166.934 198.73 164.507C198.794 163.41 198.528 162.569 197.986 162.058C197.593 161.696 197.061 161.536 196.562 161.6C195.754 161.717 194.84 162.537 194.829 162.548L194.309 161.983C194.351 161.941 195.403 160.983 196.455 160.844C197.189 160.738 197.954 160.993 198.507 161.504C199.017 161.973 199.601 162.878 199.506 164.57C199.336 167.328 195.595 170.288 195.435 170.415Z" fill="#EAEBF4"/>
<path d="M8.17055 3.19531H270.765C272.91 3.19531 274.677 4.93039 274.677 7.10711V18.1169H4.25879V7.10711C4.25879 4.93039 5.99383 3.19531 8.17055 3.19531Z" fill="#7A8398"/>
<path d="M237.61 11.6426C237.61 9.90755 236.222 8.51953 234.486 8.51953C232.751 8.51953 231.363 9.90755 231.363 11.6426C231.363 13.3777 232.751 14.7658 234.486 14.7658C236.222 14.7658 237.61 13.3461 237.61 11.6426Z" fill="#F7622A"/>
<path d="M249.44 11.6426C249.44 9.90755 248.052 8.51953 246.317 8.51953C244.581 8.51953 243.193 9.90755 243.193 11.6426C243.193 13.3777 244.581 14.7658 246.317 14.7658C248.052 14.7658 249.44 13.3461 249.44 11.6426Z" fill="#22A851"/>
<path d="M261.269 11.6426C261.269 9.90755 259.881 8.51953 258.146 8.51953C256.411 8.51953 255.022 9.90755 255.022 11.6426C255.022 13.3777 256.411 14.7658 258.146 14.7658C259.881 14.7658 261.269 13.3461 261.269 11.6426Z" fill="#FCD740"/>
</g>
</g>
<defs>
<filter id="filter0_d" x="-4" y="0" width="288" height="281.612" filterUnits="userSpaceOnUse" color-interpolation-filters="sRGB">
<feFlood flood-opacity="0" result="BackgroundImageFix"/>
<feColorMatrix in="SourceAlpha" type="matrix" values="0 0 0 0 0 0 0 0 0 0 0 0 0 0 0 0 0 0 127 0"/>
<feOffset dy="4"/>
<feGaussianBlur stdDeviation="2"/>
<feColorMatrix type="matrix" values="0 0 0 0 0 0 0 0 0 0 0 0 0 0 0 0 0 0 0.25 0"/>
<feBlend mode="normal" in2="BackgroundImageFix" result="effect1_dropShadow"/>
<feBlend mode="normal" in="SourceGraphic" in2="effect1_dropShadow" result="shape"/>
</filter>
<clipPath id="clip0">
<rect width="280" height="273.612" fill="white"/>
</clipPath>
</defs>
</svg>
